<svg width="24" height="25" viewBox="0 0 24 25" fill="none" xmlns="http://www.w3.org/2000/svg">
<g clip-path="url(#clip0_1_92)">
<path d="M24 12.55C24 5.92263 18.6274 0.550049 12 0.550049C5.37258 0.550049 0 5.92263 0 12.55C0 19.1775 5.37258 24.55 12 24.55C18.6274 24.55 24 19.1775 24 12.55Z" fill="#E3E5E8"/>
<path d="M14.5413 13.425L14.9043 10.8913H12.6347V9.2472C12.6347 8.55403 12.9517 7.87837 13.9682 7.87837H15V5.72122C15 5.72122 14.0637 5.55005 13.1684 5.55005C11.2994 5.55005 10.0776 6.76357 10.0776 8.96036V10.8913H8V13.425H10.0776V19.55H12.6347V13.425H14.5413Z" fill="#212429"/>
</g>
<defs>
<clipPath id="clip0_1_92">
<rect width="24" height="24" fill="white" transform="translate(0 0.550049)"/>
</clipPath>
</defs>
</svg>
