<svg width="24" height="25" viewBox="0 0 24 25" fill="none" xmlns="http://www.w3.org/2000/svg">
<g clip-path="url(#clip0_1_98)">
<path d="M24 12.55C24 5.92263 18.6274 0.550049 12 0.550049C5.37258 0.550049 0 5.92263 0 12.55C0 19.1775 5.37258 24.55 12 24.55C18.6274 24.55 24 19.1775 24 12.55Z" fill="#E3E5E8"/>
<path d="M12.0016 8.96063C10.0152 8.96063 8.41294 10.5632 8.41294 12.55C8.41294 14.5368 10.0152 16.1394 12.0016 16.1394C13.988 16.1394 15.5902 14.5368 15.5902 12.55C15.5902 10.5632 13.988 8.96063 12.0016 8.96063ZM12.0016 14.8836C10.7179 14.8836 9.66849 13.8371 9.66849 12.55C9.66849 11.2629 10.7148 10.2165 12.0016 10.2165C13.2883 10.2165 14.3346 11.2629 14.3346 12.55C14.3346 13.8371 13.2852 14.8836 12.0016 14.8836ZM16.574 8.8138C16.574 9.27927 16.1992 9.65102 15.737 9.65102C15.2716 9.65102 14.8999 9.27615 14.8999 8.8138C14.8999 8.35146 15.2747 7.97658 15.737 7.97658C16.1992 7.97658 16.574 8.35146 16.574 8.8138ZM18.9508 9.66352C18.8977 8.54202 18.6416 7.5486 17.8202 6.73012C17.0019 5.91165 16.0087 5.65548 14.8875 5.59925C13.7318 5.53365 10.2682 5.53365 9.11255 5.59925C7.99442 5.65236 7.00123 5.90852 6.17981 6.727C5.35839 7.54548 5.10541 8.53889 5.04919 9.66039C4.9836 10.8162 4.9836 14.2807 5.04919 15.4365C5.10229 16.558 5.35839 17.5515 6.17981 18.3699C7.00123 19.1884 7.9913 19.4446 9.11255 19.5008C10.2682 19.5664 13.7318 19.5664 14.8875 19.5008C16.0087 19.4477 17.0019 19.1915 17.8202 18.3699C18.6385 17.5515 18.8946 16.558 18.9508 15.4365C19.0164 14.2807 19.0164 10.8193 18.9508 9.66352ZM17.4579 16.6767C17.2143 17.289 16.7427 17.7608 16.1274 18.0075C15.206 18.3731 13.0197 18.2887 12.0016 18.2887C10.9834 18.2887 8.79398 18.3699 7.87574 18.0075C7.26358 17.7639 6.79197 17.2922 6.54523 16.6767C6.17981 15.7552 6.26414 13.5684 6.26414 12.55C6.26414 11.5316 6.18293 9.34175 6.54523 8.42331C6.78885 7.81101 7.26046 7.33929 7.87574 7.0925C8.7971 6.727 10.9834 6.81135 12.0016 6.81135C13.0197 6.81135 15.2091 6.73012 16.1274 7.0925C16.7395 7.33617 17.2112 7.80789 17.4579 8.42331C17.8233 9.34487 17.739 11.5316 17.739 12.55C17.739 13.5684 17.8233 15.7583 17.4579 16.6767Z" fill="#212429"/>
</g>
<defs>
<clipPath id="clip0_1_98">
<rect width="24" height="24" fill="white" transform="translate(0 0.550049)"/>
</clipPath>
</defs>
</svg>
