<svg width="24" height="25" viewBox="0 0 24 25" fill="none" xmlns="http://www.w3.org/2000/svg">
<g clip-path="url(#clip0_1_104)">
<path d="M24 12.55C24 5.92263 18.6274 0.550049 12 0.550049C5.37258 0.550049 0 5.92263 0 12.55C0 19.1775 5.37258 24.55 12 24.55C18.6274 24.55 24 19.1775 24 12.55Z" fill="#E3E5E8"/>
<path d="M8.68607 18.55H6.19821V10.5383H8.68607V18.55ZM7.4408 9.44538C6.64527 9.44538 6 8.78644 6 7.99089C6 7.60875 6.1518 7.24227 6.422 6.97206C6.6922 6.70185 7.05868 6.55005 7.4408 6.55005C7.82293 6.55005 8.1894 6.70185 8.45961 6.97206C8.72981 7.24227 8.88161 7.60875 8.88161 7.99089C8.88161 8.78644 8.23607 9.44538 7.4408 9.44538ZM17.9973 18.55H15.5148V14.6499C15.5148 13.7204 15.4961 12.5284 14.2213 12.5284C12.9279 12.5284 12.7296 13.5383 12.7296 14.5829V18.55H10.2445V10.5383H12.6305V11.6311H12.6654C12.9975 11.0016 13.8088 10.3374 15.0193 10.3374C17.5371 10.3374 18 11.9954 18 14.149V18.55H17.9973Z" fill="#212429"/>
</g>
<defs>
<clipPath id="clip0_1_104">
<rect width="24" height="24" fill="white" transform="translate(0 0.550049)"/>
</clipPath>
</defs>
</svg>
